<?xml version="1.0" standalone="yes"?>
<svg xmlns="http://www.w3.org/2000/svg" width="860" height="298">
<path style="fill:#fbfbfb; stroke:none;" d="M0 0L0 298L860 298L860 0L0 0z"/>
<path style="fill:#6741d9; stroke:none;" d="M452.667 40.3333L453.333 40.6667L452.667 40.3333M459 40L462 42L459 40M467 40L467 41L471 41L467 40M472.667 40.3333L473.333 40.6667L472.667 40.3333z"/>
<path style="fill:#6741d9; stroke:none;" d="M474.667 40.3333L475.333 40.6667L474.667 40.3333z"/>
<path style="fill:#6741d9; stroke:none;" d="M476 40L477 41L476 40M440 41L438 42L438 43L440 41M635 41L635 42L637 43L633 45L636 46L635 44L636 44L638 47L639 47L640 43L635 41M656 41L657 42L656 41M433 42L434 43L433 42M508 42L505 44L506 47C502.602 44.6544 488.838 40.9361 488 47L486 44L480 44C479.175 50.1686 468 39.856 468 48L465 48L466 46L456 46L456 47L460 47L460 48L454 47L454 50L453 50L453 47L447 46L448 44L445 47L444 47L441 44L440 47L436 44C431.152 48.5766 421.479 47.4887 415 48L416 52L415 52L409 50L411 49L411 48L402 47L403 50L395 50L396 47L388 50L381 50L379 50L379 48L378 48L379 52L377 49L369 48L368 48L365 51L364 48L353 50C346.873 45.6724 336.175 49.3762 329 49L321 50L312 49L312 48L315 47L315 46L290 49C287.326 47.2531 286.173 47.7206 284 50L283 50C281.415 47.2685 276.981 47.6401 277 51L274 53L265 54L265 55L277 54L278 51C295.278 55.287 317.79 52.7016 335.424 51.5008C342.056 51.0492 355.5 49.2891 361 53L362 53L363 53L365 51C365.401 53.8106 367.357 53.287 370 53L370 52L368 52L368 51C379.872 54.6508 391.809 53.0642 404 51L403 53C406.141 53.4883 409.139 55.9164 410 52L417 53L428 51L429 53L427 56L432 55L430 52C438.148 52.9254 445.307 50.6313 453.424 50.99C458.253 51.2033 462.698 53.5785 466 49L489 53L489 52L487 52L487 51L493 49L501 50L501 51L496 51L496 52L509 51L509 52L503 54L503 55L511 55L510 52L518 52L518 51L512 51L512 50L522 49L522 48L518 48L518 47C522.107 47 524.862 45.5509 524 49L531 49L531 50L520 51L520 52L565.961 49.9452L592 46L591 43L579 46L580 44L564 47L564 46L567 46L567 45L556 44L554 48L553 48L552 48L529 43L529 44L533 46L526 45L526 44L528 44L528 43L522 43L522 46C518.057 42.0978 514.085 42.406 509 44L508 42M593 43L593 47L599 47L599 48C592.981 48 578.08 45.3308 574 50L610 46C611.31 52.112 620.065 47.9857 623 45L624 48L629 48L629 47L626 46L628 43L616 46L616 45L618 45L618 44L604 45L603 42L593 43M641 42L641 44L643 44L641 42M646 42L642 45L648 45L646 42M694 42L695 43L694 42M688 44L688 45L696 44L696 47L702 46C698.621 40.9306 693.156 43.8515 688 44M448 43L449 44L448 43M478 43L479 44L478 43z"/>
<path style="fill:#6741d9; stroke:none;" d="M509 43L510 44L509 43z"/>
<path style="fill:#6741d9; stroke:none;" d="M629 43L629 44L632 44L629 43M650 43L651 44L650 43M658 43L659 44L658 43M664 44L664 45L668 44L664 44z"/>
<path style="fill:#6741d9; stroke:none;" d="M668 43L669 44L668 43z"/>
<path style="fill:#6741d9; stroke:none;" d="M669 43L672 48L674 44L673 44L672 47L671 47L669 43M674 43L674 44L682 45L674 43M685 43L687 45L687 43L685 43M452 44L453 45L452 44z"/>
<path style="fill:#6741d9; stroke:none;" d="M483 44L484 45L483 44M499 44L500 45L499 44M502.667 44.3333L503.333 44.6667L502.667 44.3333M521 44L521 46L523 44L521 44M526 44L526 45L533 46L526 44M595 46L598 44L595 46M599 45L599 46L603 47L602 44L599 45M604 44L605 45L604 44M606 44L607 45L606 44M612 44L613 45L612 44M626 45L630 47L633 45L626 45M635 44L637 46L637 44L635 44M640 44L640 45L645 45L640 44M648 44L648 46L652 46L652 44L648 44z"/>
<path style="fill:#6741d9; stroke:none;" d="M652 46L656 45L652 46z"/>
<path style="fill:#6741d9; stroke:none;" d="M654 47L664 46L664 44L654 47M670 44L671 47L672 47L673 44L670 44M676 46C681.483 46.4385 692.403 48.7246 696 44L676 46z"/>
<path style="fill:#6741d9; stroke:none;" d="M683 44L684 45L683 44z"/>
<path style="fill:#fbfbfb; stroke:none;" d="M698 44L699 45L698 44z"/>
<path style="fill:#6741d9; stroke:none;" d="M702 44L702 46L704 46L702 44z"/>
<path style="fill:#6741d9; stroke:none;" d="M703 44L703 45L707 48L706 45L710 46L703 44M712 44L712 45L712 48L727 46L723 47L723 46L728 45L712 44M729 44L729 47L733 48L733 46L737 48L738 46L729 44M428.667 45.3333L429.333 45.6667L428.667 45.3333z"/>
<path style="fill:#6741d9; stroke:none;" d="M436 45L433 49L433 50C435.749 49.042 436.801 47.9083 436 45M447.667 45.3333L448.333 45.6667L447.667 45.3333z"/>
<path style="fill:#6741d9; stroke:none;" d="M462.667 45.3333L463.333 45.6667L462.667 45.3333z"/>
<path style="fill:#6741d9; stroke:none;" d="M479.667 45.3333L480.333 45.6667L479.667 45.3333M486 45L486 47L488 47L486 45M493 45L493 46L499 46L493 45z"/>
<path style="fill:#fbfbfb; stroke:none;" d="M560 45L561 46L560 45z"/>
<path style="fill:#6741d9; stroke:none;" d="M571 45L572 46L571 45M575 45L576 46L575 45M579.667 45.3333L580.333 45.6667L579.667 45.3333M592 45L593 46L592 45z"/>
<path style="fill:#6741d9; stroke:none;" d="M600 45L601 46L600 45z"/>
<path style="fill:#fbfbfb; stroke:none;" d="M620 45L621 46L620 45z"/>
<path style="fill:#6741d9; stroke:none;" d="M622 45L623 46L622 45z"/>
<path style="fill:#6741d9; stroke:none;" d="M630 45L630 47L632 45L630 45z"/>
<path style="fill:#707070; stroke:none;" d="M637 45L638 46L637 45z"/>
<path style="fill:#6741d9; stroke:none;" d="M638 45L639 46L638 45z"/>
<path style="fill:#6741d9; stroke:none;" d="M677 45L678 46L677 45z"/>
<path style="fill:#707070; stroke:none;" d="M684 45L685 46L684 45M696 45L697 46L696 45M704 45L705 46L704 45z"/>
<path style="fill:#6741d9; stroke:none;" d="M708 45L709 46L708 45M710 45L711 48L714 45L710 45M723 46L723 47L730 46L723 46M736 47L742 47L736 47z"/>
<path style="fill:#6741d9; stroke:none;" d="M739 45L739 46L742 46L742 47L738 48L738 49L743 47L748 48L748 49L745 49L745 50C750.673 51.0726 766.865 49.1995 768 57L780 60L780 61L775 61L775 62C786.127 64.0212 787.604 75.4672 788 85L792 88L812 95C810.962 100.59 812.677 106.956 807 110L808 113L800 119L804 120L814 115L810 119L810 120L814 120L813 123L793 120L789 120L768 126L768 124L763 126C761.106 122.767 759.467 122.983 756 124L758 127L755 124L751 124L753 126L753 127L748 128L748 129L772 130L772 126L778 126L776 129L782 130C786.924 126.615 798.573 130.405 803 134L804 134L806 132L820 141L819 149L810 154L811 158L809 155L808 155L791 163L816 163L814 173L810 174L810 175L815 175L815 176L812 180L816 180L816 181L814 182L816 183L814 185L818 187L818 188L813 188L813 189L818 192L818 193L816 195L822 198L822 190L820 191L822 189L822 188L823 186L823 177L823 172L823 171L820 168L819 168L817 172L817 173L817 177L816 165L819 167L822 166L827 159L823 157L823 155L826 154L822 151L822 150L826 149L825 146C822.525 146.513 822.425 146.604 823 149C820.456 151.417 821.476 155.828 824 158L824 159L819 164L821 141L824 144L825 144L822 141L822 140L830 137L816 123L824 116L824 115L818 112L815 115L817 112L817 111L813 111L813 110L820 110L821 105L813 105L813 104L818 104L818 103L818 98L819 98L823 100C818.999 94.6118 811.517 94.2487 812 86L802 82L803 79L799 79L799 78L804 77L804 76L800 76L806 71L806 70L806 69L804 69L797 76L800 82L794 81L790 81L789 80L792 76L792 58L779 54L772 48L763 49L763 48L766 48L766 47L749 47L739 45z"/>
<path style="fill:#6741d9; stroke:none;" d="M744 45L745 46L744 45M161 47C162.755 52.7294 164.67 55.606 171 55L169 52L173 52L172 55L176 54L175 51L210 50C206.931 45.1297 201.992 46.6682 197 46.6605C185.499 46.6427 172.33 44.8491 161 47z"/>
<path style="fill:#6741d9; stroke:none;" d="M164 46L165 47L164 46M175 46L176 47L175 46M179 46L180 47L179 46M186 46L187 47L186 46M194.667 46.3333L195.333 46.6667L194.667 46.3333M205.667 46.3333L206.333 46.6667L205.667 46.3333M317 46L318 47L317 46M319.667 46.3333L320.333 46.6667L319.667 46.3333M383 46L384 47L383 46M408 46L409 47L408 46z"/>
<path style="fill:#6741d9; stroke:none;" d="M444 46L445 47L444 46M452 46L453 50L454 50L454 47L460 48L452 46M474 46L475 47L474 46M489 46L490 47L489 46M505 46L506 47L505 46M526 46L527 47L526 46M534 46L534 47L538 47L534 46M539 46L539 47L543 47L539 46M552 46L552 48L554 48L554 46L552 46z"/>
<path style="fill:#fbfbfb; stroke:none;" d="M554 48L554 49L568 49C563.581 46.8759 558.565 46.1666 554 48z"/>
<path style="fill:#6741d9; stroke:none;" d="M560 46L561 47L560 46M564 46L564 47L568 47L564 46z"/>
<path style="fill:#fbfbfb; stroke:none;" d="M572 47L572 48L599 48C592.474 44.0355 579.397 46.1737 572 47z"/>
<path style="fill:#6741d9; stroke:none;" d="M611.667 46.3333L612.333 46.6667L611.667 46.3333z"/>
<path style="fill:#fbfbfb; stroke:none;" d="M615 46L616 47L615 46z"/>
<path style="fill:#6741d9; stroke:none;" d="M658 46L655 47L655 48L658 46M678 46L679 47L678 46M682 46L683 47L682 46M686.667 46.3333L687.333 46.6667L686.667 46.3333M693.667 46.3333L694.333 46.6667L693.667 46.3333z"/>
<path style="fill:#6741d9; stroke:none;" d="M705 46L706 47L705 46z"/>
<path style="fill:#707070; stroke:none;" d="M711 46L712 47L711 46M725 46L726 47L725 46z"/>
<path style="fill:#6741d9; stroke:none;" d="M732 46L733 48L734 48L735 46L732 46z"/>
<path style="fill:#707070; stroke:none;" d="M738 46L739 47L738 46z"/>
<path style="fill:#6741d9; stroke:none;" d="M745.667 46.3333L746.333 46.6667L745.667 46.3333M749.667 46.3333L750.333 46.6667L749.667 46.3333z"/>
<path style="fill:#6741d9; stroke:none;" d="M134 52L146 61C141.845 62.3424 140.15 63.7345 139 68L130 65L129 69L114 66L114 65C120.749 65 124.084 63.1163 129 59C122.775 57.164 109.583 57.5085 103.228 59.1582C99.6874 60.0775 99.8072 64.0536 102 66L102 67L98 70L105 71L84 78C81.5981 75.2799 79.1917 77.7485 75.9606 77.4961C67.8155 76.86 63.9926 73.5684 58 80L62 88L59 87L59 90L66 91L57 97L67 99L67 98L65 97L71 97L71 98L65 101L65 102L67 104C60.4265 106.181 60.3962 108.797 57 114C58.2655 120.717 58.3132 127.493 64 132L64 133L63 137L58 138L58 140L61 141L61 144L54 147L55 144L49 149L54 152L42 146L42 147L46 148L44 154C40.2004 154.574 37.3301 155.178 36 159L38 157L41 157L42 161L46 160L38 169L40 168L40 169L34 179L38 180L40 178L40 177L38 175L39 174L41 174L43 180L40 179L45 182L45 183L35 183L35 184L39 184L39 185L36 188C38.3125 188.598 39.3402 188.849 38 191L39 189L38 189L36 193L37 193L37 191L38 191L41 198L44 197L52 202L48 209L49 209L52 207L52 208L51 210L48 211L48 212L55 213L52 213L51 223L52 223L55 217L53 220C55.9716 223.504 54.1107 227.3 52 231L56 234L56 235C53.5954 236.942 51.6802 242.332 48 240L47 240L47 244L44 242L44 248L46 246L42 250L42 251L48 250L48 251L45 255L48 256C44.9249 259.839 43.1187 263.341 49 265L51 271C53.4234 270.042 54.6416 270.328 55 273L57 271L58 271L62 273L62 272L60 273L60 272L64 271L63 274L64 274L73 273L76 272L81 272L88 274L87 271L95 272L93 275L97 274L98 273L97 271L112 276L112 275L109 274L109 273L118 275L122 275L127 273L127 276L134 276C134 272.388 138.413 274.523 141 275L143 272L142 274C157.734 266.333 176.902 270 194 270L194 269C184.232 269 167.572 271.046 160 264L168 265C165.175 261.084 161.313 262.2 157 263L158 267L126 269L128 265L115 263L108 264L100 267L89 267C86.266 262.969 82.9839 266.332 79 266.856C72.903 267.657 62.3597 266.981 57 264L56 267L55 267L56 264L53 265L50 263L55 254L55 253L50 250L64 247L64 246L59 245C59 248.547 54.6517 246.209 52 246L49 250C51.8039 243.641 60.5362 239.014 56 232L68 230L68 229L58 227L61 226L61 225L57 225L57 224L62 220L56 219L56 218L60 217L55 213L58 212C62.6347 216.85 71.5692 209.038 76 207C74.5915 204.296 72.2571 202.209 75 200L75 199L68 196L67 196L52 197L52 196L59 195L59 194L51 195L51 191L55 187C59.5019 186.408 67.3814 186.587 69 182L76 183L76 182L66 179C65.3615 173.626 55.4321 173.257 51 172L51 168L55 168L55 167L52 167C57.0335 161.291 65.9355 161.339 73 160L65 155L62 156L74 154L72 152L78 151C78.774 154.812 81.704 156.186 85 154C88.4282 156.414 93.2022 157.648 96 154L89 154L89 152L99 151C96.9129 144.393 86.6959 145.888 81 147L88 144L89 139L80 140L80 139L82 136L91 136L94 137L94 135L111 137L111 136L108 134L113 134L113 133L110 128C105.452 128.019 93.0801 125.96 92 131L82 128L81 129L83 132L67 120L67 119L69 119L69 118L66 115L72 114L72 113L68 112L70 109L64 110L64 109C68.1829 107.908 72.5254 106.294 74 102L75 102L90 103L88 104L88 105L117 110L117 107L119 110L165 109L165 108L146 106.034L133.715 102.275L109.715 103.943L89 98L89 97L96 95L96 92L113 93L113 90L124 93L124 90L133 90L133 89L130 88L134 86L134 85L128 85L128 84L132 84L131 82L135 82L135 81L129 81L132 75L134 76L144 71L142 69L145 69L142 66L142 65L150 66L173 67L171 64L179 65L178 62L183 62L183 65L179 70L184 72L184 73L169 72C174.281 78.0434 188.246 72.2484 194.996 72.537C197.739 72.6543 199.563 75.1266 202.184 75.7222C207.401 76.9077 213.662 76 219 76L219 75L215 75L215 74L217 73L208 67L213 66L205 61L205 60L208 60L208 59L187 59L184 63C185.449 60.3408 186.378 58.7389 183 58L182 53C187.993 51.5731 194.561 50.7278 200 54L201 51L218.015 53.9807L231 54L232 54C238.297 49.2977 256.838 53.7439 264 56L264 55L262 52L256 53L257 49L255 52L251 52L252 49L250 51L248 50L247 50L247 51L249 53L246 49L222 49L222 50L224 51L210 48C203.816 52.1801 182.324 52.5925 175 51L176 54L172 55L173 52L169 52L171 55C164.906 55.2366 163.274 52.2819 161 47L134 52M176 47L177 48L176 47M178 47L179 48L178 47M182 47L182 48L186 48L182 47M209 47L210 48L209 47z"/>
<path style="fill:#6741d9; stroke:none;" d="M291.667 47.3333L292.333 47.6667L291.667 47.3333M294.667 47.3333L295.333 47.6667L294.667 47.3333M312 48L312 49L318 48L312 48z"/>
<path style="fill:#6741d9; stroke:none;" d="M322 47L323 48L322 47z"/>
<path style="fill:#6741d9; stroke:none;" d="M405.667 47.3333L406.333 47.6667L405.667 47.3333M438 47L439 48L438 47M441 47L442 48L441 47M465 47L466 48L465 47M469 47L470 48L469 47M471.667 47.3333L472.333 47.6667L471.667 47.3333M476 47L477 48L476 47M480 47L481 48L480 47M501 47L502 48L501 47M543 47L544 48L543 47z"/>
<path style="fill:#6741d9; stroke:none;" d="M680.667 47.3333L681.333 47.6667L680.667 47.3333M688 47L688 48L691 48L688 47M710 47L711 48L710 47z"/>
<path style="fill:#fbfbfb; stroke:none;" d="M743 47L744 48L743 47z"/>
<path style="fill:#6741d9; stroke:none;" d="M759 47L759 48L762 48L759 47M211 48C214.02 51.6071 219.634 51.9374 224 51L224 50L211 48z"/>
<path style="fill:#707070; stroke:none;" d="M213 48L214 49L213 48z"/>
<path style="fill:#6741d9; stroke:none;" d="M214 48L215 49L214 48M271 49L271 50L275 50L271 49z"/>
<path style="fill:#6741d9; stroke:none;" d="M285 48L286 49L285 48M289 48L290 49L289 48M300.667 48.3333L301.333 48.6667L300.667 48.3333M305 48L305 49L309 49L305 48M319 48L319 50L321 50L321 48L319 48M330 48L330 50L332 50L332 48L330 48M352 48L354 50L354 48L352 48M358 48L358 49L362 49L358 48M364 48L365 51L368 48L364 48z"/>
<path style="fill:#6741d9; stroke:none;" d="M366 48L367 49L366 48z"/>
<path style="fill:#fbfbfb; stroke:none;" d="M389 48L390 49L389 48z"/>
<path style="fill:#6741d9; stroke:none;" d="M390 48L391 49L390 48M392 48L393 49L392 48M395 48L395 50L397 50L397 48L395 48M402.333 48.6667L402.667 49.3333L402.333 48.6667M409 49L409 50L416 51C414.088 48.0792 412.304 48.3096 409 49M428 48L429 49L428 48z"/>
<path style="fill:#707070; stroke:none;" d="M453 48L454 49L453 48z"/>
<path style="fill:#6741d9; stroke:none;" d="M463 48L464 49L463 48z"/>
<path style="fill:#fbfbfb; stroke:none;" d="M544 48L544 49L552 49L544 48z"/>
<path style="fill:#6741d9; stroke:none;" d="M570 48L570 50L574 50L574 48L570 48M743 48L743 49L748 49L743 48M753.667 48.3333L754.333 48.6667L753.667 48.3333M763 48L763 49L771 49L763 48M772 48L779 54L792 58L792 76L790 81L791 81C791 78.2623 792.65 78.2859 793 81L794 81L800 82L797 79L797 78L799 76L793 78L793 77L804 69L808 70L809 67L809 66L805 66C810.158 58.0626 796.363 53.9889 790 53L790 52L794 52L794 51L772 48z"/>
<path style="fill:#6741d9; stroke:none;" d="M778.667 48.3333L779.333 48.6667L778.667 48.3333M781 48L782 49L781 48M259 49L260 50L259 49M264 49L264 50L269 50L264 49z"/>
<path style="fill:#6741d9; stroke:none;" d="M256 53L262 52C263.009 56.6836 269.917 52.5768 274 53L277 51C273.23 48.5531 256.998 48.3446 256 53M278 49L278 50L281 51L278 49M326 49L326 51L329 51L329 49L326 49M350 49L351 50L350 49M384 49L385 50L384 49M391 49L392 50L391 49z"/>
<path style="fill:#707070; stroke:none;" d="M411 49L412 50L411 49M428 49L429 51L430 51L431 49L428 49z"/>
<path style="fill:#6741d9; stroke:none;" d="M431 49L432 50L431 49z"/>
<path style="fill:#707070; stroke:none;" d="M432.333 49.6667L432.667 50.3333L432.333 49.6667z"/>
<path style="fill:#6741d9; stroke:none;" d="M466 49L467 50L466 49z"/>
<path style="fill:#fbfbfb; stroke:none;" d="M487.667 49.3333L488.333 49.6667L487.667 49.3333M533 49L534 50L533 49M537 49L538 50L537 49z"/>
<path style="fill:#6741d9; stroke:none;" d="M786 49L786 50L789 50L786 49z"/>
<path style="fill:#fbfbfb; stroke:none;" d="M208 50L209 51L208 50z"/>
<path style="fill:#6741d9; stroke:none;" d="M229 50L229 51L239 51L229 50M242 50L243 51L242 50M245 50L245 51L249 53L245 50M251 50L255 52L251 50z"/>
<path style="fill:#6741d9; stroke:none;" d="M262 50L263 51L262 50z"/>
<path style="fill:#707070; stroke:none;" d="M265 50L266 51L265 50z"/>
<path style="fill:#6741d9; stroke:none;" d="M371 50L372 51L371 50M374 50L375 51L374 50M377 50L377 52L379 52L379 50L377 50z"/>
<path style="fill:#fbfbfb; stroke:none;" d="M383 50L384 51L383 50z"/>
<path style="fill:#6741d9; stroke:none;" d="M389 50L391 52L391 50L389 50M428 50L429 51L428 50z"/>
<path style="fill:#575757; stroke:none;" d="M430.667 50.3333L431.333 50.6667L430.667 50.3333z"/>
<path style="fill:#6741d9; stroke:none;" d="M528 50L529 51L528 50z"/>
<path style="fill:#6741d9; stroke:none;" d="M721 50L721 51L724 51L721 50z"/>
<path style="fill:#fbfbfb; stroke:none;" d="M762.667 50.3333L763.333 50.6667L762.667 50.3333z"/>
<path style="fill:#6741d9; stroke:none;" d="M767 50L768 51L767 50z"/>
<path style="fill:#6741d9; stroke:none;" d="M785 50L786 51L785 50M791.667 50.3333L792.333 50.6667L791.667 50.3333M165 51L168 54L165 51z"/>
<path style="fill:#6741d9; stroke:none;" d="M225 51L225 52L228 52L225 51M322.667 51.3333L323.333 51.6667L322.667 51.3333z"/>
<path style="fill:#fbfbfb; stroke:none;" d="M408 51L409 52L408 51M415 51L416 52L415 51z"/>
<path style="fill:#6741d9; stroke:none;" d="M468.667 51.3333L469.333 51.6667L468.667 51.3333z"/>
<path style="fill:#fbfbfb; stroke:none;" d="M482 51L482 52L486 52L482 51z"/>
<path style="fill:#6741d9; stroke:none;" d="M506 51L506 52L509 52L506 51M511 51L512 52L511 51M770.667 51.3333L771.333 51.6667L770.667 51.3333z"/>
<path style="fill:#6741d9; stroke:none;" d="M794.667 51.3333L795.333 51.6667L794.667 51.3333z"/>
<path style="fill:#fbfbfb; stroke:none;" d="M141 52L142 53L141 52z"/>
<path style="fill:#6741d9; stroke:none;" d="M152 52L153 53L152 52M156 52L157 53L156 52M375 52L376 53L375 52z"/>
<path style="fill:#6741d9; stroke:none;" d="M401 52L402 53L401 52M419 52L420 53L419 52M491 52L491 53L496 53L491 52M704 52L704 53L707 53L704 52M708 52L708 53L713 53L708 52z"/>
<path style="fill:#707070; stroke:none;" d="M790 52L790 53L801 57C798.539 52.6784 794.719 52.1109 790 52z"/>
<path style="fill:#6741d9; stroke:none;" d="M796.667 52.3333L797.333 52.6667L796.667 52.3333M161.333 53.6667L161.667 54.3333L161.333 53.6667z"/>
<path style="fill:#6741d9; stroke:none;" d="M242 53L243 54L242 53z"/>
<path style="fill:#fbfbfb; stroke:none;" d="M408 53L409 54L408 53z"/>
<path style="fill:#6741d9; stroke:none;" d="M424 53L425 54L424 53M719 53L720 54L719 53z"/>
<path style="fill:#6741d9; stroke:none;" d="M798.667 53.3333L799.333 53.6667L798.667 53.3333M143 54L144 55L143 54M146.667 54.3333L147.333 54.6667L146.667 54.3333z"/>
<path style="fill:#6741d9; stroke:none;" d="M387 54L388 55L387 54M395 54L395 55L398 55L395 54M435 54L436 55L435 54M572 54L573 55L572 54z"/>
<path style="fill:#707070; stroke:none;" d="M788 54L788 56L795 57L794 60L795 60L796 60L796 56L788 54z"/>
<path style="fill:#575757; stroke:none;" d="M797 54L798 55L797 54z"/>
<path style="fill:#6741d9; stroke:none;" d="M800 54L802 56L800 54z"/>
<path style="fill:#6741d9; stroke:none;" d="M801 54L802 55L801 54z"/>
<path style="fill:#6741d9; stroke:none;" d="M149 55L150 56L149 55z"/>
<path style="fill:#6741d9; stroke:none;" d="M248 55L249 56L248 55M537 55L538 56L537 55M543 55L544 56L543 55z"/>
<path style="fill:#fbfbfb; stroke:none;" d="M772 55L773 56L772 55M165 56L168 58L165 56z"/>
<path style="fill:#6741d9; stroke:none;" d="M801.333 56.6667L801.667 57.3333L801.333 56.6667z"/>
<path style="fill:#6741d9; stroke:none;" d="M147 57L148 58L147 57z"/>
<path style="fill:#fbfbfb; stroke:none;" d="M151 60L164 59L164 57L151 60z"/>
<path style="fill:#707070; stroke:none;" d="M792 57L793 58L792 57M797 57L797 58L800 58L800 59L797 59L797 60L802 60L797 57z"/>
<path style="fill:#6741d9; stroke:none;" d="M804 58L805 59L804 58M806 59L807 60L806 59z"/>
<path style="fill:#fbfbfb; stroke:none;" d="M108 60L108 61L119 61L108 60z"/>
<path style="fill:#6741d9; stroke:none;" d="M158 60L162 63L161 65L171 67L164 63L165 61L158 60z"/>
<path style="fill:#707070; stroke:none;" d="M160 60L161 61L160 60M164.667 60.3333L165.333 60.6667L164.667 60.3333z"/>
<path style="fill:#6741d9; stroke:none;" d="M166 60L166 61L170 61L166 60z"/>
<path style="fill:#fbfbfb; stroke:none;" d="M182 60L183 61L182 60z"/>
<path style="fill:#707070; stroke:none;" d="M804.667 60.3333L805.333 60.6667L804.667 60.3333z"/>
<path style="fill:#6741d9; stroke:none;" d="M807 60L808 61L807 60z"/>
<path style="fill:#6741d9; stroke:none;" d="M151.667 61.3333L152.333 61.6667L151.667 61.3333M192 63L202 66L203 63L192 63z"/>
<path style="fill:#707070; stroke:none;" d="M794 62L795 63L794 62z"/>
<path style="fill:#6741d9; stroke:none;" d="M132.667 63.3333L133.333 63.6667L132.667 63.3333z"/>
<path style="fill:#fbfbfb; stroke:none;" d="M167 63L167 64L171 64L167 63z"/>
<path style="fill:#707070; stroke:none;" d="M200 63L199 65L200 63M797 63L802 68L803 68L803 66L804 66L806 68L802 66L802 63L797 63z"/>
<path style="fill:#6741d9; stroke:none;" d="M807 63L808 64L807 63z"/>
<path style="fill:#fbfbfb; stroke:none;" d="M105 64L104 66L106 66L105 64z"/>
<path style="fill:#6741d9; stroke:none;" d="M128 64L129 65L128 64M135 64L136 65L135 64M805 66L808 66L807 64L805 66z"/>
<path style="fill:#fbfbfb; stroke:none;" d="M110 65L110 66L113 66L110 65z"/>
<path style="fill:#6741d9; stroke:none;" d="M126 65L127 66L126 65M137 65L138 66L137 65z"/>
<path style="fill:#707070; stroke:none;" d="M164 65L165 66L164 65z"/>
<path style="fill:#fbfbfb; stroke:none;" d="M184 65L184 66L187 66L184 65z"/>
<path style="fill:#6741d9; stroke:none;" d="M204 65L204 66L207 66L204 65M208 65L209 66L208 65z"/>
<path style="fill:#707070; stroke:none;" d="M794.667 65.3333L795.333 65.6667L794.667 65.3333z"/>
<path style="fill:#6741d9; stroke:none;" d="M65 66L65 67L72 67L65 66z"/>
<path style="fill:#fbfbfb; stroke:none;" d="M108 66C110.065 68.8586 111.663 68.9026 115 68L115 67L108 66z"/>
<path style="fill:#6741d9; stroke:none;" d="M809 66L810 67L809 66z"/>
<path style="fill:#fbfbfb; stroke:none;" d="M142 67L143 68L142 67M181 69L186 68L181 69z"/>
<path style="fill:#707070; stroke:none;" d="M795 67L796 68L795 67z"/>
<path style="fill:#6741d9; stroke:none;" d="M807 67L808 68L807 67z"/>
<path style="fill:#fbfbfb; stroke:none;" d="M105 68L106 69L105 68z"/>
<path style="fill:#6741d9; stroke:none;" d="M128 68L129 69L128 68z"/>
<path style="fill:#6741d9; stroke:none;" d="M808 68L808 71L809 71L808 68z"/>
<path style="fill:#fbfbfb; stroke:none;" d="M107 69L108 70L107 69z"/>
<path style="fill:#6741d9; stroke:none;" d="M125.667 69.3333L126.333 69.6667L125.667 69.3333z"/>
<path style="fill:#fbfbfb; stroke:none;" d="M138 70L139 71L138 70M140 70L141 71L140 70z"/>
<path style="fill:#6741d9; stroke:none;" d="M168 71L169 72L168 71M176.667 71.3333L177.333 71.6667L176.667 71.3333M89 72L89 74L95 73L89 72z"/>
<path style="fill:#fbfbfb; stroke:none;" d="M186 72L186 73L189 73L186 72z"/>
<path style="fill:#6741d9; stroke:none;" d="M162 73L162 74L167 74L162 73z"/>
<path style="fill:#707070; stroke:none;" d="M796 73L794 75L794 76L797 77L796 73z"/>
<path style="fill:#575757; stroke:none;" d="M795.333 74.6667L795.667 75.3333L795.333 74.6667z"/>
<path style="fill:#fbfbfb; stroke:none;" d="M798 75L799 76L798 75z"/>
<path style="fill:#6741d9; stroke:none;" d="M801 76L802 77L801 76z"/>
<path style="fill:#fbfbfb; stroke:none;" d="M71 77L72 78L71 77z"/>
<path style="fill:#707070; stroke:none;" d="M791 77L792 78L791 77M793 77L794 78L793 77z"/>
<path style="fill:#6741d9; stroke:none;" d="M794.667 77.3333L795.333 77.6667L794.667 77.3333M807 77L808 78L807 77z"/>
<path style="fill:#6741d9; stroke:none;" d="M808 77L809 78L808 77z"/>
<path style="fill:#6741d9; stroke:none;" d="M809 77L810 78L809 77z"/>
<path style="fill:#6741d9; stroke:none;" d="M61 78L62 79L61 78M82 78L83 79L82 78z"/>
<path style="fill:#fbfbfb; stroke:none;" d="M109.333 78.6667L109.667 79.3333L109.333 78.6667M111 78L112 79L111 78z"/>
<path style="fill:#6741d9; stroke:none;" d="M119 78L120 79L119 78z"/>
<path style="fill:#707070; stroke:none;" d="M792 78L790 79L790 80L792 78M797 78L798 79L797 78z"/>
<path style="fill:#6741d9; stroke:none;" d="M812 78L813 79L812 78z"/>
<path style="fill:#6741d9; stroke:none;" d="M58.6667 79.3333L59.3333 79.6667L58.6667 79.3333M63.6667 79.3333L64.3333 79.6667L63.6667 79.3333z"/>
<path style="fill:#fbfbfb; stroke:none;" d="M93 79L94 80L93 79z"/>
<path style="fill:#6741d9; stroke:none;" d="M117 79L118 80L117 79z"/>
<path style="fill:#fbfbfb; stroke:none;" d="M117.667 80.3333L118.333 80.6667L117.667 80.3333z"/>
<path style="fill:#6741d9; stroke:none;" d="M57 81L56 91C52.8279 95.6086 55.2219 98.4179 60 100L60 101L57 100C53.3235 105.332 43.4073 98.8026 43 108C36.7745 107.279 35.4562 112.162 33 117L37 118L34 119L37 125L35 128L43 129L43 131L35 130L34 130C33.623 141.861 42.4829 149.661 54 152L49 149L55 144L54 147L61 144L61 141L58 140L58 138L63 137L64 133L64 132L57 114L67 104L65 102L65 101L71 98L71 97L65 97L67 98L67 99L57 97L66 91L59 90L59 87L62 88L57 81M75 81L76 82L75 81M800 82L807 89C814.239 87.4165 802.302 82.835 800 82M804.667 82.3333L805.333 82.6667L804.667 82.3333z"/>
<path style="fill:#6741d9; stroke:none;" d="M204.667 84.3333L205.333 84.6667L204.667 84.3333M55 85L56 86L55 85z"/>
<path style="fill:#707070; stroke:none;" d="M57.6667 86.3333L58.3333 86.6667L57.6667 86.3333z"/>
<path style="fill:#6741d9; stroke:none;" d="M54 87L53 90L54 87z"/>
<path style="fill:#6741d9; stroke:none;" d="M64 88L63 90L64 88z"/>
<path style="fill:#6741d9; stroke:none;" d="M54 90L54 92L56 92L54 90z"/>
<path style="fill:#6741d9; stroke:none;" d="M810 90L810 93L811 93L810 90z"/>
<path style="fill:#6741d9; stroke:none;" d="M53.3333 92.6667L53.6667 93.3333L53.3333 92.6667M54 94L55 95L54 94z"/>
<path style="fill:#6741d9; stroke:none;" d="M67 94L68 95L67 94M87 94L88 95L87 94z"/>
<path style="fill:#6741d9; stroke:none;" d="M53.3333 95.6667L53.6667 96.3333L53.3333 95.6667z"/>
<path style="fill:#6741d9; stroke:none;" d="M60 96L61 97L60 96M87 96L88 97L87 96z"/>
<path style="fill:#6741d9; stroke:none;" d="M611 96L608 99L604 97L604 98L607 98L605 101L620 100L620 99L611 96z"/>
<path style="fill:#6741d9; stroke:none;" d="M813 98L816 96L813 98z"/>
<path style="fill:#6741d9; stroke:none;" d="M54.3333 97.6667L54.6667 98.3333L54.3333 97.6667M597 97L597 98L600 98L597 97M624 98L621 100L621 101L627 102L628 101L624 98M638 98L632 100L632 101L648 99L638 98z"/>
<path style="fill:#6741d9; stroke:none;" d="M818 98L818 105L813 104L813 105L821 105L820 110L813 110L813 111L817 111L817 112L815 115L819 111C822.477 110.318 823.118 108.341 824 105L822 102L825 101L825 100L818 98z"/>
<path style="fill:#6741d9; stroke:none;" d="M51 99L52 100L51 99M55 99L53 102L53 103L57 103L55 99z"/>
<path style="fill:#707070; stroke:none;" d="M56 99L56 100L60 101L60 100L56 99z"/>
<path style="fill:#6741d9; stroke:none;" d="M63 100L64 101L63 100M596 100L597 101L596 100M825 100L826 101L825 100M48 101L48 102L53 102L48 101M820 101L821 102L820 101M824 101L825 102L824 101M46.6667 102.333L47.3333 102.667L46.6667 102.333z"/>
<path style="fill:#707070; stroke:none;" d="M818.667 102.333L819.333 102.667L818.667 102.333z"/>
<path style="fill:#6741d9; stroke:none;" d="M822 102L826 107L822 102M122 103L123 104L122 103M147.667 104.333L148.333 104.667L147.667 104.333z"/>
<path style="fill:#707070; stroke:none;" d="M817 104L818 105L817 104z"/>
<path style="fill:#6741d9; stroke:none;" d="M77 105L77 106L80 106L77 105z"/>
<path style="fill:#fbfbfb; stroke:none;" d="M125.333 105.667L125.667 106.333L125.333 105.667z"/>
<path style="fill:#707070; stroke:none;" d="M41 106L43 108L43 106L41 106M50.3333 107.667L50.6667 108.333L50.3333 107.667M53 107L54 108L53 107z"/>
<path style="fill:#fbfbfb; stroke:none;" d="M136 107L137 108L136 107z"/>
<path style="fill:#6741d9; stroke:none;" d="M180 107L184 109L180 107M823 107L826 110L823 107M168 108L168 109L171 109L168 108M41 110L42 111L41 110z"/>
<path style="fill:#6741d9; stroke:none;" d="M811 110L812 111L811 110z"/>
<path style="fill:#6741d9; stroke:none;" d="M822 110L823 111L822 110M35.3333 111.667L35.6667 112.333L35.3333 111.667z"/>
<path style="fill:#6741d9; stroke:none;" d="M60 111L61 112L60 111z"/>
<path style="fill:#6741d9; stroke:none;" d="M137.667 111.333L138.333 111.667L137.667 111.333z"/>
<path style="fill:#707070; stroke:none;" d="M819 111L820 112L819 111z"/>
<path style="fill:#6741d9; stroke:none;" d="M821 111L822 112L821 111M34 113L33 116L34 113z"/>
<path style="fill:#fbfbfb; stroke:none;" d="M66 113L67 114L66 113z"/>
<path style="fill:#6741d9; stroke:none;" d="M73 113L73 114L95 116L73 113M512 114L512 116L514 116L514 114L512 114M32 116L33 117L32 116z"/>
<path style="fill:#707070; stroke:none;" d="M56 116L57 117L56 116z"/>
<path style="fill:#6741d9; stroke:none;" d="M96 116L96 117L100 117L96 116M824 116L823 118L825 118L824 116M33 117L33 118L37 119L33 117z"/>
<path style="fill:#707070; stroke:none;" d="M37 117L38 118L37 117z"/>
<path style="fill:#6741d9; stroke:none;" d="M104.667 117.333L105.333 117.667L104.667 117.333M111 118L111 119L117 119L111 118M808 118L809 119L808 118z"/>
<path style="fill:#6741d9; stroke:none;" d="M815 118L816 119L815 118z"/>
<path style="fill:#6741d9; stroke:none;" d="M805.667 119.333L806.333 119.667L805.667 119.333M33 120L33 123L34 123L33 120M72 122L73 123L72 122z"/>
<path style="fill:#fbfbfb; stroke:none;" d="M810 122L809 124L810 122z"/>
<path style="fill:#6741d9; stroke:none;" d="M34 123L34 127L37 126L34 123z"/>
<path style="fill:#6741d9; stroke:none;" d="M790 123L791 124L790 123z"/>
<path style="fill:#fbfbfb; stroke:none;" d="M800.667 123.333L801.333 123.667L800.667 123.333z"/>
<path style="fill:#6741d9; stroke:none;" d="M808.333 124.667L808.667 125.333L808.333 124.667M783 125L784 126L783 125M791 125L792 126L791 125M795 125L795 127L805 127L795 125M810 125L815 129L813 132L816 136C816.913 140.988 821.217 138.742 825 138L825 137L817 136L820 132L815 125L810 125z"/>
<path style="fill:#6741d9; stroke:none;" d="M812.667 127.333L813.333 127.667L812.667 127.333M34 128C35.7715 132.405 38.8321 131.906 43 131L43 129L34 128M115 128L117 135L120 134L118 128L115 128z"/>
<path style="fill:#6741d9; stroke:none;" d="M37 130L38 131L37 130z"/>
<path style="fill:#6741d9; stroke:none;" d="M760.667 130.333L761.333 130.667L760.667 130.333M783 130L783 132L785 132L783 130M791.333 131.667L791.667 132.333L791.333 131.667z"/>
<path style="fill:#707070; stroke:none;" d="M816 132L816 134L818 132L816 132z"/>
<path style="fill:#6741d9; stroke:none;" d="M35 133L36 134L35 133z"/>
<path style="fill:#707070; stroke:none;" d="M54.6667 133.333L55.3333 133.667L54.6667 133.333z"/>
<path style="fill:#fbfbfb; stroke:none;" d="M104 133C102.503 135.469 101.966 136.333 105 137L106 134L104 133z"/>
<path style="fill:#6741d9; stroke:none;" d="M40 144L41 144L44 138L44 137L39 137L39 136L41 134C35.3834 136.211 37.0883 139.945 40 144z"/>
<path style="fill:#707070; stroke:none;" d="M42 135L48 137L42 135M49 134L49 136L51 136L51 134L49 134z"/>
<path style="fill:#fbfbfb; stroke:none;" d="M70.3333 134.667L70.6667 135.333L70.3333 134.667M819 134L820 135L819 134z"/>
<path style="fill:#6741d9; stroke:none;" d="M33 135L34 136L33 135z"/>
<path style="fill:#707070; stroke:none;" d="M59 135L60 136L59 135z"/>
<path style="fill:#6741d9; stroke:none;" d="M66 135L66 136L71 138L71 137L66 135z"/>
<path style="fill:#6741d9; stroke:none;" d="M33 137L35 143L36 143L33 137z"/>
<path style="fill:#707070; stroke:none;" d="M56 137L57 138L56 137z"/>
<path style="fill:#6741d9; stroke:none;" d="M72.6667 137.333L73.3333 137.667L72.6667 137.333z"/>
<path style="fill:#fbfbfb; stroke:none;" d="M76 137L77 138L76 137M60.6667 138.333L61.3333 138.667L60.6667 138.333M79 138L80 139L79 138z"/>
<path style="fill:#6741d9; stroke:none;" d="M69 140L69 141L75 141L69 140z"/>
<path style="fill:#707070; stroke:none;" d="M818 139L819 140L818 139z"/>
<path style="fill:#6741d9; stroke:none;" d="M91 140L92 141L91 140M44.6667 141.333L45.3333 141.667L44.6667 141.333z"/>
<path style="fill:#fbfbfb; stroke:none;" d="M68 141L69 142L68 141z"/>
<path style="fill:#6741d9; stroke:none;" d="M821 141L819 164L822 163L824 159L824 158C821.813 155.153 821.175 152.162 823 149L822 146L826 146L821 141z"/>
<path style="fill:#707070; stroke:none;" d="M50 142L50 145L51 145L50 142z"/>
<path style="fill:#6741d9; stroke:none;" d="M66 144L69 144L68 142L66 144z"/>
<path style="fill:#6741d9; stroke:none;" d="M88 142L89 144L90 144L91 142L88 142M36 143L37 144L36 143M32 144L32 147L36 146L32 144M38 144L39 145L38 144z"/>
<path style="fill:#707070; stroke:none;" d="M47 144L48 145L47 144z"/>
<path style="fill:#6741d9; stroke:none;" d="M826 146L829 145L826 146M40 145L41 146L40 145M816 145L817 146L816 145M748 147L748 148L762 150L748 147z"/>
<path style="fill:#fbfbfb; stroke:none;" d="M77 147L78 148L77 147M57 151L68 154L68 149C64.0073 147.831 59.7176 147.43 57 151M72 150L73 151L72 150M80 150L79 152L80 150z"/>
<path style="fill:#6741d9; stroke:none;" d="M54 152L53 155L49 155L51 163L55 159L52 158L56 152L54 152z"/>
<path style="fill:#fbfbfb; stroke:none;" d="M87 152L88 153L87 152z"/>
<path style="fill:#6741d9; stroke:none;" d="M823 153L824 154L823 153M42 155L42 157L45 157L45 155L42 155M818 155L819 156L818 155z"/>
<path style="fill:#6741d9; stroke:none;" d="M70.6667 156.333L71.3333 156.667L70.6667 156.333z"/>
<path style="fill:#6741d9; stroke:none;" d="M38 157C39.1266 159.006 39.8734 159.006 41 157L38 157M60 160L61 161L60 160z"/>
<path style="fill:#fbfbfb; stroke:none;" d="M55 161L54 163L55 161M816 162L817 163L816 162z"/>
<path style="fill:#6741d9; stroke:none;" d="M47.6667 163.333L48.3333 163.667L47.6667 163.333M45 164L46 165L45 164z"/>
<path style="fill:#fbfbfb; stroke:none;" d="M51 164L52 165L51 164z"/>
<path style="fill:#6741d9; stroke:none;" d="M818 164L819 165L818 164M816 165L817 177L817 173L817 172C819.159 169.158 818.49 167.371 816 165z"/>
<path style="fill:#6741d9; stroke:none;" d="M775 169L781 168C778.302 166.479 776.781 166.407 775 169M822.667 167.333L823.333 167.667L822.667 167.333z"/>
<path style="fill:#6741d9; stroke:none;" d="M39 168L36 173L39 168z"/>
<path style="fill:#6741d9; stroke:none;" d="M36.3333 169.667L36.6667 170.333L36.3333 169.667M35.3333 171.667L35.6667 172.333L35.3333 171.667z"/>
<path style="fill:#6741d9; stroke:none;" d="M40 172L41 173L40 172M42 172L43 174L44 174L45 172L42 172M39 174L38 175L40 177L40 178L35 181L45 183L45 182L40 179L43 180L41 174L39 174M50.6667 174.333L51.3333 174.667L50.6667 174.333M42 175L42 176L48 176L42 175M818 177L819 180L820 180L820 177L818 177z"/>
<path style="fill:#6741d9; stroke:none;" d="M32 179L33 180L32 179M33.6667 180.333L34.3333 180.667L33.6667 180.333M35 181L36 182L35 181z"/>
<path style="fill:#6741d9; stroke:none;" d="M45 181L46 182L45 181M819 181L818 186L821 185L821 181L819 181M35 186L39 185L35 186z"/>
<path style="fill:#6741d9; stroke:none;" d="M34 185L35 186L34 185z"/>
<path style="fill:#6741d9; stroke:none;" d="M38.6667 186.333L39.3333 186.667L38.6667 186.333M35 190L39 189L38 191L40 188L35 190M43 189L43 190L46 190L43 189z"/>
<path style="fill:#fbfbfb; stroke:none;" d="M816.667 189.333L817.333 189.667L816.667 189.333z"/>
<path style="fill:#6741d9; stroke:none;" d="M820 190L821 191L820 190M37.3333 191.667L37.6667 192.333L37.3333 191.667z"/>
<path style="fill:#6741d9; stroke:none;" d="M815 191L816 192L815 191z"/>
<path style="fill:#6741d9; stroke:none;" d="M39 194L47 193L39 194M818 193L819 194L818 193M810 197L812 200L808 199L808 200L814 201L815 197L821 198C817.377 195.226 814.216 195.853 810 197M44 196L47 199L47 196L44 196z"/>
<path style="fill:#707070; stroke:none;" d="M47 196L47 199L48 199L47 196z"/>
<path style="fill:#6741d9; stroke:none;" d="M48 196L52 199L48 196z"/>
<path style="fill:#6741d9; stroke:none;" d="M811 196L812 197L811 196z"/>
<path style="fill:#575757; stroke:none;" d="M47 197L49 199L49 197L47 197z"/>
<path style="fill:#6741d9; stroke:none;" d="M806 199L806 201C810.118 202.892 812.081 204.29 812 209L808 209L808 210C811.488 211.08 812.12 212.389 812 216L814 216L813 219L818 220L818 221L810 224L810 225L822 224L821 228C809.017 225.676 799.744 230.416 788 233L788 232L790 230L780 248L780 249L784 250L765 258L749 258L748 258L748 262L744 260L745 262L744 262L738 259L741 262L740 266L733 264L733 263L739 264L739 263C734.217 261.423 723.966 257.278 722 264L721 264L692 265L686 266L685 269L671 272L671 273L702 273L702 272L696 272L700 269L700 271L703 270C703.948 274.424 708.344 272.601 712 273L717 269C716.189 273.867 724.317 270.442 721 269L721 268L729 270L729 268L725 266L734 266L734 267L730 267L730 268L735 270L737 267L747 263L750 265L749 262C753.796 261.662 772.206 260.349 773 255L785 258C785.475 254.523 787.703 253.9 791 254L792 252L792 251L790 251L790 250L794 249L794 254L798 251L805 249L805 246L807 247L808 244L819 242L818 238L821 240L822 237L817 232L818 229L824 227L823 224L822 216C825.953 213.818 825.946 211.179 825 207L823 209L820 205L821 204L824 206L816 198L819 205L815 201L808 200L808 199L812 200C810.119 197.516 808.816 197.911 806 199M813 197L814 198L813 197z"/>
<path style="fill:#707070; stroke:none;" d="M815 197L813 200C815.391 200.012 816.117 199.313 815 197M49 198L50 199L49 198z"/>
<path style="fill:#6741d9; stroke:none;" d="M54 198L55 199L54 198z"/>
<path style="fill:#6741d9; stroke:none;" d="M819 198L820 199L819 198z"/>
<path style="fill:#6741d9; stroke:none;" d="M52 200L52 202L54 202L52 200M55 200L56 201L55 200M815 200L819 205L815 200z"/>
<path style="fill:#6741d9; stroke:none;" d="M48 202L49 203L48 202z"/>
<path style="fill:#6741d9; stroke:none;" d="M49 204L52 203L49 204M55 202L56 203L55 202M53 203L54 204L53 203z"/>
<path style="fill:#707070; stroke:none;" d="M816 203L817 204L816 203z"/>
<path style="fill:#fbfbfb; stroke:none;" d="M52.6667 204.333L53.3333 204.667L52.6667 204.333z"/>
<path style="fill:#6741d9; stroke:none;" d="M56 206L61 205L56 206z"/>
<path style="fill:#6741d9; stroke:none;" d="M807 204L808 205L807 204z"/>
<path style="fill:#6741d9; stroke:none;" d="M821 204L820 205L824 209L821 204M49 209L52 208L49 209M53 207L54 208L53 207M819.667 207.333L820.333 207.667L819.667 207.333z"/>
<path style="fill:#6741d9; stroke:none;" d="M805 208L805 209L808 209L805 208z"/>
<path style="fill:#6741d9; stroke:none;" d="M52.6667 209.333L53.3333 209.667L52.6667 209.333M814 209L814 210L817 210L814 209M824 209L824 213L825 213L824 209M49 213L55 213C52.6381 210.933 51.0204 210.354 49 213M55 214L58 212L55 214z"/>
<path style="fill:#6741d9; stroke:none;" d="M50 214L51 215L50 214z"/>
<path style="fill:#6741d9; stroke:none;" d="M51 214L51 216L53 214L51 214z"/>
<path style="fill:#6741d9; stroke:none;" d="M808 214L808 216L810 216L810 214L808 214z"/>
<path style="fill:#6741d9; stroke:none;" d="M825 214L822 216L824 221L825 221L825 214z"/>
<path style="fill:#6741d9; stroke:none;" d="M825 216L825 219L826 219L825 216z"/>
<path style="fill:#6741d9; stroke:none;" d="M53 217L50 226L53 239L48 242L56 235L56 234L52 231C54.4474 227.685 57.0601 222.742 53 220L55 217L53 217z"/>
<path style="fill:#6741d9; stroke:none;" d="M64 221C66.0125 223.82 68.0733 223.895 70 221L64 221z"/>
<path style="fill:#fbfbfb; stroke:none;" d="M820 221L821 222L820 221z"/>
<path style="fill:#6741d9; stroke:none;" d="M823.333 221.667L823.667 222.333L823.333 221.667z"/>
<path style="fill:#fbfbfb; stroke:none;" d="M814 224L818 223L814 224z"/>
<path style="fill:#6741d9; stroke:none;" d="M61.6667 223.333L62.3333 223.667L61.6667 223.333M49 226L52 225L49 226z"/>
<path style="fill:#6741d9; stroke:none;" d="M823 224L824 225L823 224M822 225L823 226L822 225z"/>
<path style="fill:#6741d9; stroke:none;" d="M51 226L52 227L51 226M671 226L672 227L671 226M50 227L50 230L51 230L50 227z"/>
<path style="fill:#6741d9; stroke:none;" d="M818 229L817 232L820 238L823 235L824 231L822 229L825 228L818 229z"/>
<path style="fill:#6741d9; stroke:none;" d="M825 227L826 228L825 227z"/>
<path style="fill:#fbfbfb; stroke:none;" d="M51 228L52 229L51 228z"/>
<path style="fill:#6741d9; stroke:none;" d="M784 228L784 229L789 229L784 228M823 228L824 231L823 228M72 230L72 231L82 231L72 230z"/>
<path style="fill:#6741d9; stroke:none;" d="M815 230L816 231L815 230z"/>
<path style="fill:#6741d9; stroke:none;" d="M50 231L50 235L51 235L50 231z"/>
<path style="fill:#707070; stroke:none;" d="M821 231L822 232L821 231z"/>
<path style="fill:#6741d9; stroke:none;" d="M822 232L823 233L822 232M821 234L821 235L824 236L821 234z"/>
<path style="fill:#6741d9; stroke:none;" d="M815 235L813 236L813 237L815 235z"/>
<path style="fill:#6741d9; stroke:none;" d="M51 236L52 237L51 236M61 236L61 237L64 238L61 236M52.3333 237.667L52.6667 238.333L52.3333 237.667z"/>
<path style="fill:#6741d9; stroke:none;" d="M818 238L818 241C820.006 239.873 820.006 239.127 818 238z"/>
<path style="fill:#6741d9; stroke:none;" d="M49.6667 239.333L50.3333 239.667L49.6667 239.333z"/>
<path style="fill:#6741d9; stroke:none;" d="M816 241L817 242L816 241M46 242L46 244L48 242L46 242M814.667 242.333L815.333 242.667L814.667 242.333M47 246L50 243L47 246M806.333 244.667L806.667 245.333L806.333 244.667M808 244L809 245L808 244M45 246L45 248L47 248L45 246z"/>
<path style="fill:#6741d9; stroke:none;" d="M80.6667 246.333L81.3333 246.667L80.6667 246.333M83 246L83 247L86 247L83 246z"/>
<path style="fill:#6741d9; stroke:none;" d="M805.333 246.667L805.667 247.333L805.333 246.667z"/>
<path style="fill:#fbfbfb; stroke:none;" d="M53 247L54 248L53 247z"/>
<path style="fill:#6741d9; stroke:none;" d="M49 250L52 249L49 250z"/>
<path style="fill:#6741d9; stroke:none;" d="M86.6667 248.333L87.3333 248.667L86.6667 248.333M775 248L775 249L778 249L775 248z"/>
<path style="fill:#fbfbfb; stroke:none;" d="M783 248L784 249L783 248z"/>
<path style="fill:#6741d9; stroke:none;" d="M803 248L804 249L803 248z"/>
<path style="fill:#6741d9; stroke:none;" d="M61 249L61 250L64 250L61 249z"/>
<path style="fill:#6741d9; stroke:none;" d="M790 250L792 252C789.071 253.273 792.194 253.805 794 254L794 249L790 250M45 250L45 251L48 251L45 250z"/>
<path style="fill:#6741d9; stroke:none;" d="M53 250L54 251L53 250M774.667 250.333L775.333 250.667L774.667 250.333z"/>
<path style="fill:#6741d9; stroke:none;" d="M795 251L796 252L795 251M798 251L799 252L798 251M47 252L48 253L47 252z"/>
<path style="fill:#6741d9; stroke:none;" d="M768.667 252.333L769.333 252.667L768.667 252.333z"/>
<path style="fill:#fbfbfb; stroke:none;" d="M794 252L795 253L794 252z"/>
<path style="fill:#6741d9; stroke:none;" d="M761 253L761 254L765 254L761 253z"/>
<path style="fill:#6741d9; stroke:none;" d="M47 254L48 255L47 254z"/>
<path style="fill:#6741d9; stroke:none;" d="M758.667 254.333L759.333 254.667L758.667 254.333z"/>
<path style="fill:#6741d9; stroke:none;" d="M781 254L782 256L783 256L784 254L781 254M51 255L52 256L51 255z"/>
<path style="fill:#6741d9; stroke:none;" d="M753.667 255.333L754.333 255.667L753.667 255.333z"/>
<path style="fill:#6741d9; stroke:none;" d="M773.667 255.333L774.333 255.667L773.667 255.333z"/>
<path style="fill:#6741d9; stroke:none;" d="M54 256L55 257L54 256z"/>
<path style="fill:#6741d9; stroke:none;" d="M784 256L785 257L784 256M47 263C48.6993 261.725 51.5412 260.708 48 260L48 259L51 257C47.6258 258.093 46.8715 259.492 47 263z"/>
<path style="fill:#6741d9; stroke:none;" d="M109 257L109 258L114 258L109 257M195 257L196 258L195 257z"/>
<path style="fill:#6741d9; stroke:none;" d="M760 257L761 258L760 257z"/>
<path style="fill:#707070; stroke:none;" d="M761 257L762 258L761 257z"/>
<path style="fill:#6741d9; stroke:none;" d="M54 258L55 259L54 258M160 258L160 259L168 262L168 258L160 258M464.667 258.333L465.333 258.667L464.667 258.333z"/>
<path style="fill:#6741d9; stroke:none;" d="M762 258L763 259L762 258z"/>
<path style="fill:#6741d9; stroke:none;" d="M733 259L733 260L736 260L733 259z"/>
<path style="fill:#6741d9; stroke:none;" d="M760 259L761 260L760 259z"/>
<path style="fill:#6741d9; stroke:none;" d="M769 259L770 260L769 259M178 260L177 263C181.001 264.18 188.972 265.241 192 262L202 262L202 261L189 263L187 261L179 263L180 260L178 260M440 263L433 264L434 261L403 262C403 266.171 396.033 264 393 264L393 265L417 267C421.54 262.963 427.689 267.79 433.09 267.942C445.623 268.296 458.315 264.929 471 265L470 263L474 264L474 265L518 265L518 264L504 263L505 260L500 262L499 262L498 262L495 260C495 263.294 488.803 262.362 486 262L488 261L488 260L450 261L450 263C446.465 261.971 441.094 257.894 440 263z"/>
<path style="fill:#fbfbfb; stroke:none;" d="M192 262L193 263L192 262z"/>
<path style="fill:#6741d9; stroke:none;" d="M160 264C165.544 271.793 183.47 268.293 192 269.285C196.663 269.828 200.393 270.462 203 266L200 267L201 263L160 264z"/>
<path style="fill:#fbfbfb; stroke:none;" d="M441.667 262.333L442.333 262.667L441.667 262.333z"/>
<path style="fill:#6741d9; stroke:none;" d="M470 263L470 264L476 263L470 263z"/>
<path style="fill:#6741d9; stroke:none;" d="M169 263L170 264L169 263M171.667 263.333L172.333 263.667L171.667 263.333M174.667 263.333L175.333 263.667L174.667 263.333z"/>
<path style="fill:#707070; stroke:none;" d="M187 263L188 264L187 263M198.667 263.333L199.333 263.667L198.667 263.333z"/>
<path style="fill:#6741d9; stroke:none;" d="M201 263L200 264L203 266L201 263M376 263L376 264L378 266L372 268L371 268L361.028 264.056L353 267.667L334 268L328 266L329 269L306 268L299 269L300 267C289.866 264.524 269.161 271.894 259 275C263.499 278.073 271.681 277.089 276 274L287 276L293 275C294.474 272.964 295.6 271.904 296 275L297 275C300.732 272.052 306.646 272.971 311 274L311 272L314 274L317 270L316 273L332 270L331 273C338.933 269.585 348.471 269.035 357 270L368 267L369 267L393 267L393 266L387 266L387 265L390 265L376 263z"/>
<path style="fill:#6741d9; stroke:none;" d="M409 263L413 265L413 264L409 263z"/>
<path style="fill:#6741d9; stroke:none;" d="M411 263L412 264L411 263z"/>
<path style="fill:#6741d9; stroke:none;" d="M733 263L733 264L740 266L733 263z"/>
<path style="fill:#707070; stroke:none;" d="M735 263L736 264L735 263z"/>
<path style="fill:#6741d9; stroke:none;" d="M744 263L744 264L747 264L744 263M748 263L749 264L748 263M49 264L50 265L49 264z"/>
<path style="fill:#6741d9; stroke:none;" d="M59 264L59 265L62 265L59 264M64 264L65 265L64 264M69.6667 264.333L70.3333 264.667L69.6667 264.333z"/>
<path style="fill:#707070; stroke:none;" d="M186 265L186 266L188 266L188 267L183 266L183 267L200 268L197 267L198 264L186 265z"/>
<path style="fill:#6741d9; stroke:none;" d="M398 264L398 265L401 265L398 264M419 265L419 266L423 264L419 265z"/>
<path style="fill:#707070; stroke:none;" d="M421 264L422 265L421 264M473 264L474 265L473 264z"/>
<path style="fill:#6741d9; stroke:none;" d="M741 264L742 265L741 264M48 265L49 266L48 265z"/>
<path style="fill:#fbfbfb; stroke:none;" d="M200.667 265.333L201.333 265.667L200.667 265.333z"/>
<path style="fill:#6741d9; stroke:none;" d="M387 265L387 266L394 266L387 265M426 265L426 266L429 266L426 265M432 265L432 266L436 267L432 265M725 266L734 267L725 266M50 266L51 269L52 269L50 266M55 266L56 267L55 266z"/>
<path style="fill:#707070; stroke:none;" d="M175 266L176 267L175 266z"/>
<path style="fill:#6741d9; stroke:none;" d="M193 266L194 267L193 266z"/>
<path style="fill:#707070; stroke:none;" d="M200 266L201 267L200 266z"/>
<path style="fill:#6741d9; stroke:none;" d="M203.333 266.667L203.667 267.333L203.333 266.667z"/>
<path style="fill:#fbfbfb; stroke:none;" d="M363 266L364 267L363 266z"/>
<path style="fill:#6741d9; stroke:none;" d="M571 266L561 269L583 274C583 270.436 586.624 273.375 589 274L588 271L597 273L571 266z"/>
<path style="fill:#6741d9; stroke:none;" d="M736 266L737 267L736 266M53.6667 267.333L54.3333 267.667L53.6667 267.333M159 267L159 269L161 267L159 267z"/>
<path style="fill:#6741d9; stroke:none;" d="M204 272L220 276.748L237 276C233.044 271.472 225.212 275.629 220 274.992C215.504 274.442 211.097 270.889 207 269L212 268C207.9 266.342 205.453 268.048 204 272z"/>
<path style="fill:#6741d9; stroke:none;" d="M356 268L356 269L361 269L361 267L356 268M368 267L369 268L368 267M371 267L372 268L371 267z"/>
<path style="fill:#6741d9; stroke:none;" d="M420 267L420 268L423 268L420 267z"/>
<path style="fill:#6741d9; stroke:none;" d="M695 267L696 268L695 267z"/>
<path style="fill:#fbfbfb; stroke:none;" d="M717 267L718 268L717 267z"/>
<path style="fill:#6741d9; stroke:none;" d="M83 268L84 271L88 268L83 268z"/>
<path style="fill:#707070; stroke:none;" d="M84.6667 268.333L85.3333 268.667L84.6667 268.333z"/>
<path style="fill:#6741d9; stroke:none;" d="M94 268L94 270L101 271L94 268M151 268L152 269L151 268M156.667 268.333L157.333 268.667L156.667 268.333z"/>
<path style="fill:#fbfbfb; stroke:none;" d="M206 268L207 269L206 268z"/>
<path style="fill:#6741d9; stroke:none;" d="M559 268L560 269L559 268z"/>
<path style="fill:#fbfbfb; stroke:none;" d="M563 268L564 269L563 268z"/>
<path style="fill:#6741d9; stroke:none;" d="M619 268L616 272L616 273L648 273C643.981 267.504 627.097 268.562 622 272L621 268L619 268z"/>
<path style="fill:#6741d9; stroke:none;" d="M688.667 268.333L689.333 268.667L688.667 268.333M721 268L721 269L724 269L721 268z"/>
<path style="fill:#6741d9; stroke:none;" d="M740 268L741 269L740 268z"/>
<path style="fill:#6741d9; stroke:none;" d="M52 269L56 272L52 269z"/>
<path style="fill:#575757; stroke:none;" d="M84.6667 269.333L85.3333 269.667L84.6667 269.333z"/>
<path style="fill:#707070; stroke:none;" d="M100.667 269.333L101.333 269.667L100.667 269.333z"/>
<path style="fill:#6741d9; stroke:none;" d="M102 269L103 270L102 269M147 269L146 271L147 269z"/>
<path style="fill:#6741d9; stroke:none;" d="M200.333 269.667L200.667 270.333L200.333 269.667z"/>
<path style="fill:#6741d9; stroke:none;" d="M204 269L205 270L204 269M292 270L292 271L297 270L292 270M344 269L344 270L347 270L344 269M352 269L352 270L355 270L352 269M696 272L703 272L703 271L700 269L696 272M714 269L714 270L717 270L714 269z"/>
<path style="fill:#fbfbfb; stroke:none;" d="M727 269L728 270L727 269z"/>
<path style="fill:#6741d9; stroke:none;" d="M730 271L733 269L730 271z"/>
<path style="fill:#6741d9; stroke:none;" d="M76.6667 270.333L77.3333 270.667L76.6667 270.333M106 270L108 273L106 270z"/>
<path style="fill:#fbfbfb; stroke:none;" d="M125 270L126 271L125 270z"/>
<path style="fill:#6741d9; stroke:none;" d="M202.333 270.667L202.667 271.333L202.333 270.667z"/>
<path style="fill:#6741d9; stroke:none;" d="M203 270L204 271L203 270z"/>
<path style="fill:#707070; stroke:none;" d="M293 270L294 271L293 270z"/>
<path style="fill:#6741d9; stroke:none;" d="M315 270L315 272L317 272L317 270L315 270M330 270L330 272L332 272L332 270L330 270M338 270L339 271L338 270M598 270C598.766 273.559 600.867 272.582 604 272L598 270z"/>
<path style="fill:#6741d9; stroke:none;" d="M600 270L600 271L604 271L604 272L601 272L601 273L609 273L600 270z"/>
<path style="fill:#fbfbfb; stroke:none;" d="M702 270L703 271L702 270z"/>
<path style="fill:#6741d9; stroke:none;" d="M709 270L709 271L712 271L709 270M57.3333 271.667L57.6667 272.333L57.3333 271.667M60 273L64 272L60 273M70 271L70 272L73 272L70 271M87.3333 271.667L87.6667 272.333L87.3333 271.667M91 271L92 272L91 271z"/>
<path style="fill:#6741d9; stroke:none;" d="M216.667 271.333L217.333 271.667L216.667 271.333M223 271L223 272L228 272L223 271z"/>
<path style="fill:#6741d9; stroke:none;" d="M319 271L318 273L320 273L319 271M325 271L326 272L325 271M333 271L333 272L338 272L333 271M572 272L572 273L576 271L572 272M581 271L582 272L581 271M588 271L589 272L588 271M590.667 271.333L591.333 271.667L590.667 271.333M595.667 271.333L596.333 271.667L595.667 271.333M620 271L621 272L620 271z"/>
<path style="fill:#6741d9; stroke:none;" d="M650 271L654 273L654 272L650 271M713 273L716 273L715 271L713 273z"/>
<path style="fill:#6741d9; stroke:none;" d="M64 272C65.9468 274.231 68.0532 274.231 70 272L64 272M74.6667 272.333L75.3333 272.667L74.6667 272.333M78 272L79 273L78 272M80 272L81 273L80 272M82.6667 272.333L83.3333 272.667L82.6667 272.333M92 272L92 273L92 274L95 273L95 272L92 272z"/>
<path style="fill:#707070; stroke:none;" d="M93 272L94 273L93 272z"/>
<path style="fill:#6741d9; stroke:none;" d="M96 272L97 273L96 272M140 274L143 272L140 274M284 272L284 273L287 273L284 272M298 272L299 273L298 272M303 273L303 274L307 273L303 273M332 272L333 273L332 272M582 272L582 273L587 274L582 272M609 272L610 273L609 272z"/>
<path style="fill:#6741d9; stroke:none;" d="M610.667 272.333L611.333 272.667L610.667 272.333M613.667 272.333L614.333 272.667L613.667 272.333z"/>
<path style="fill:#6741d9; stroke:none;" d="M615 272L616 273L615 272M626 272L626 273L629 273L626 272M636 272L636 273L641 273L636 272z"/>
<path style="fill:#6741d9; stroke:none;" d="M656 272L657 273L656 272z"/>
<path style="fill:#6741d9; stroke:none;" d="M692 272L693 273L692 272M695 272L696 273L695 272z"/>
<path style="fill:#6741d9; stroke:none;" d="M70 273L71 274L70 273z"/>
<path style="fill:#6741d9; stroke:none;" d="M109 273L109 274L114 273L109 273M115 273L115 274L118 274L115 273M121 273L121 274L127 274L121 273M128 273L127 275L129 275L128 273M132 273L133 274L132 273z"/>
<path style="fill:#6741d9; stroke:none;" d="M251 273L248 275L248 276C252.012 275.949 257.046 276.908 259 273L251 273z"/>
<path style="fill:#6741d9; stroke:none;" d="M252 273L253 274L252 273M277 273L278 274L277 273M279.333 273.667L279.667 274.333L279.333 273.667M282 273L284 275L282 273M299 273L299 274L302 274L299 273z"/>
<path style="fill:#6741d9; stroke:none;" d="M305 273L306 274L305 273M599.667 273.333L600.333 273.667L599.667 273.333M66.6667 274.333L67.3333 274.667L66.6667 274.333z"/>
<path style="fill:#6741d9; stroke:none;" d="M119 274L120 275L119 274M133 274L133 275L137 275L133 274z"/>
<path style="fill:#6741d9; stroke:none;" d="M238 275L238 276L247 275L238 275z"/>
<path style="fill:#6741d9; stroke:none;" d="M244 274L245 275L244 274M258.667 274.333L259.333 274.667L258.667 274.333M267 274L268 275L267 274z"/>
<path style="fill:#6741d9; stroke:none;" d="M603 274L604 275L603 274M113 275L114 276L113 275z"/>
<path style="fill:#6741d9; stroke:none;" d="M228 275L229 276L228 275M237 275L238 276L237 275M240 275L241 276L240 275M256 275L257 276L256 275M280 275L280 276L283 276L280 275z"/>
<path style="fill:#6741d9; stroke:none;" d="M826.333 276.667L826.667 277.333L826.333 276.667M762 279L763 280L762 279z"/>
</svg>
