<?xml version="1.0" ?><svg enable-background="new 0 0 1663.417 413.979" id="Layer_1" version="1.1" viewBox="0 0 1663.417 413.979" xml:space="preserve" xmlns="http://www.w3.org/2000/svg" xmlns:xlink="http://www.w3.org/1999/xlink"><g><path d="M7.368,31.399h166.5c-0.01,55.5,0,111-0.01,166.5c-55.49,0-110.99,0-166.49,0V31.399L7.368,31.399z" fill="#F25022"/><path d="M173.868,31.399h17c0,55.5-0.01,111,0.01,166.5c55.49,0,110.99-0.01,166.48,0   c0.02-55.5,0.01-111,0.01-166.5h1289v129.49c-11.88,0.04-23.76-0.09-35.63,0.08c-0.27-15.03-0.03-30.06-0.13-45.08   c-11.88,3.58-23.69,7.39-35.63,10.79c-0.29,11.4-0.02,22.81-0.15,34.21c-17.56-0.01-35.12,0.02-52.68-0.02   c0.22-8.98-0.62-18.03,0.67-26.96c1.07-7.04,5.15-14.08,12.01-16.8c8.65-3.55,18.32-1.19,26.54,2.43   c-0.05-10.29,0.08-20.58-0.07-30.86c-17.3-4.76-37.13-3.83-52.48,6.16c-9.9,6.34-17.08,16.48-20.31,27.72   c-3.82,12.45-1.87,25.6-2.48,38.38c-8.33-0.06-16.65-0.14-24.96,0.05c0.09,9.62,0.05,19.24,0.02,28.85   c8.35,0.17,16.71-0.03,25.06,0.13c-0.07,40.48-0.02,80.95-0.02,121.43c12,0,24.01,0,36.01,0c0-40.49-0.01-80.98,0.01-121.47   c17.56-0.03,35.13-0.02,52.7-0.01c0.05,25.81-0.05,51.61,0.04,77.41c0.16,12.02,2.21,24.87,10.17,34.36   c6.89,8.4,17.83,12.24,28.39,13.02c11.13,0.79,22.63-0.57,32.92-5.04v71.73h-1289c0-55.5,0-111,0-166.5   c-55.5,0-111-0.01-166.49,0.01c-0.02,55.49,0,110.99-0.01,166.49h-17c0-55.5,0.01-110.99,0-166.49c-55.5-0.03-111,0-166.5-0.02   v-16.99c55.5,0,111,0,166.49,0C173.868,142.399,173.858,86.899,173.868,31.399L173.868,31.399z" fill="#fff"/><path d="M190.868,31.399h166.5c0,55.5,0.01,111-0.01,166.5c-55.49-0.01-110.99,0-166.48,0   C190.858,142.399,190.868,86.899,190.868,31.399L190.868,31.399z" fill="#80BA01"/><path d="M1508.818,94.839c15.35-9.99,35.18-10.92,52.48-6.16c0.15,10.28,0.02,20.57,0.07,30.86   c-8.22-3.62-17.89-5.98-26.54-2.43c-6.86,2.72-10.94,9.76-12.01,16.8c-1.29,8.93-0.45,17.98-0.67,26.96   c17.56,0.04,35.12,0.01,52.68,0.02c0.13-11.4-0.14-22.81,0.15-34.21c11.94-3.4,23.75-7.21,35.63-10.79   c0.1,15.02-0.14,30.05,0.13,45.08c11.87-0.17,23.75-0.04,35.63-0.08v29.24c-11.92-0.49-23.85-0.13-35.77-0.17   c0.05,16.81,0.01,33.62,0.02,50.44c0.19,9.31-0.5,18.67,0.59,27.95c0.66,5.47,2.65,11.53,7.78,14.36   c8.59,4.81,19.49,2.71,27.38-2.57v29.53c-10.29,4.47-21.79,5.83-32.92,5.04c-10.56-0.78-21.5-4.62-28.39-13.02   c-7.96-9.49-10.01-22.34-10.17-34.36c-0.09-25.8,0.01-51.6-0.04-77.41c-17.57-0.01-35.14-0.02-52.7,0.01   c-0.02,40.49-0.01,80.98-0.01,121.47c-12,0-24.01,0-36.01,0c0-40.48-0.05-80.95,0.02-121.43c-8.35-0.16-16.71,0.04-25.06-0.13   c0.03-9.61,0.07-19.23-0.02-28.85c8.31-0.19,16.63-0.11,24.96-0.05c0.61-12.78-1.34-25.93,2.48-38.38   C1491.738,111.319,1498.918,101.179,1508.818,94.839L1508.818,94.839z" fill="#777777"/><path d="M737.838,96.939c7.26-1.1,15.12,1.38,19.93,7.06c5.64,6.22,6.68,16.12,2.5,23.39   c-4.62,8.2-14.96,12.01-23.97,10.04c-9.35-1.68-17.14-10.37-16.72-20.06C719.308,107.169,727.838,98.079,737.838,96.939   L737.838,96.939z" fill="#777777"/><path d="M461.868,101.399c17.46,0,34.91,0,52.37,0c16.3,41.39,32.72,82.74,49.04,124.13   c4.17,10.35,8.07,20.82,12.44,31.09c20.97-51.72,42.24-103.31,63.05-155.1c16.79-0.27,33.59-0.06,50.39-0.1   c-0.04,69.99-0.02,139.98-0.01,209.97c-12.12-0.03-24.23,0.1-36.34-0.07c0.13-51.65-0.01-103.3,0.06-154.96   c0.02-2.32-0.06-4.64-0.22-6.96c-0.71,1.08-1.34,2.2-1.89,3.36c-20.81,52.87-42.02,105.59-62.71,158.51   c-8.62,0.31-17.25,0.02-25.88,0.16c-21.47-52.87-42.67-105.86-64.03-158.77c-0.56-1.1-1.16-2.17-1.81-3.2   c-0.44,22.63-0.07,45.28-0.19,67.91c0.01,31.34-0.02,62.68,0.01,94.02c-11.43,0.03-22.86,0-34.28,0.01   C461.858,241.399,461.848,171.399,461.868,101.399L461.868,101.399z" fill="#777777"/><path d="M836.938,160.749c17.38-4.95,36.12-4.75,53.49,0.16c3.58,1,7.05,2.39,10.27,4.28   c-0.2,11.47,0,22.95-0.11,34.43c-11.61-8.87-26.34-14.49-41.1-12.63c-11.72,1.06-22.9,7.14-29.91,16.61   c-9.01,11.74-11.09,27.33-9.54,41.69c1.16,11.24,5.81,22.47,14.55,29.92c9.08,8.07,21.81,10.93,33.69,10.03   c11.74-1.35,22.82-6.32,32.31-13.26c0.1,10.87-0.05,21.74,0.08,32.61c-14.72,8.76-32.37,11.02-49.22,10.19   c-17.24-0.91-34.43-7.44-46.91-19.56c-13.56-13.07-20.92-31.71-21.79-50.38c-0.88-19.41,3.07-39.66,14.24-55.87   C806.348,175.139,820.988,165.349,836.938,160.749L836.938,160.749z" fill="#777777"/><path d="M1080.908,158.159c17.28-2.2,35.51-1.22,51.55,6.08c13.92,6.28,25.2,17.89,31.45,31.79   c6.67,14.8,8.29,31.42,7.16,47.47c-1.11,15.67-6.03,31.37-15.83,43.82c-10.03,13.22-25.15,22.18-41.34,25.51   c-13.84,2.88-28.32,2.87-42.16-0.04c-16.56-3.54-31.89-13.15-41.6-27.13c-11.4-16.2-14.64-36.8-13.19-56.21   c0.98-16.47,6.1-33.07,16.62-45.99C1045.088,168.989,1062.758,160.449,1080.908,158.159L1080.908,158.159z" fill="#777777"/><path d="M1230.288,158.459c16.65-2.93,34.08-0.78,49.84,5.19c0.02,11.04,0,22.07,0.01,33.1   c-11.01-7.57-24.46-11.64-37.82-11.17c-6.73,0.26-14.13,3.11-17.2,9.51c-2.44,6.33-0.75,14.63,5.22,18.42   c10.21,6.83,22.39,9.73,32.97,15.85c8.33,4.68,16.41,10.8,20.63,19.62c7.93,16.52,4.57,38.35-9.37,50.67   c-13.31,12.44-32.48,15.88-50.11,15.22c-12.52-0.81-25.1-3.28-36.61-8.4c0.05-11.61-0.07-23.21,0.06-34.81   c9.68,7.03,20.85,12.06,32.67,14.1c8.23,1.34,17.18,1.4,24.85-2.28c7.34-3.65,8.66-14.08,4.3-20.46   c-4.08-4.92-10.07-7.63-15.72-10.29c-10.61-4.77-21.76-8.76-31.08-15.91c-6.55-5.11-11.51-12.31-13.45-20.43   c-2.88-11.97-1.98-25.46,4.98-35.92C1202.408,168.279,1216.218,160.969,1230.288,158.459L1230.288,158.459z" fill="#777777"/><path d="M1367.918,158.109c17.97-2.23,37.05-1.02,53.45,7.26c14.3,7.15,25.39,20.07,30.93,35.01   c4.33,11.43,5.85,23.77,5.6,35.94c0.03,18.18-4.88,36.84-16.29,51.26c-10.68,13.96-27.02,23.03-44.27,25.88   c-16.87,2.73-34.69,2.02-50.72-4.29c-16.24-6.39-29.74-19.43-36.58-35.49c-7.13-16.37-7.88-34.79-5.66-52.28   c2.33-17.49,10.25-34.59,23.75-46.22C1339.188,165.469,1353.428,159.969,1367.918,158.109L1367.918,158.109z" fill="#777777"/><path d="M981.218,163.199c9.94-5.97,22.57-6.47,33.42-2.82c-0.05,12.01,0,24.02-0.03,36.03   c-7.1-4.6-15.96-6.57-24.34-5.72c-10.22,1.16-18.32,9.01-22.52,18.01c-4.56,9.53-5.42,20.31-5.13,30.73c0,23.99,0.01,47.98,0,71.97   c-11.84,0-23.67,0-35.5,0c-0.03-50.14,0.04-100.29-0.03-150.43c11.85-0.15,23.7-0.09,35.55-0.03c-0.05,8.61,0,17.22-0.03,25.84   C966.458,177.409,972.188,168.309,981.218,163.199L981.218,163.199z" fill="#777777"/><path d="M722.848,160.939c11.94-0.05,23.89-0.17,35.83,0.06c-0.14,50.13-0.01,100.27-0.06,150.4   c-11.92,0-23.84,0-35.75,0C722.838,261.249,722.878,211.099,722.848,160.939L722.848,160.939z" fill="#777777"/><path d="M1091.648,186.739c10.82-0.71,22.34,2.35,30.12,10.22c8.32,8.18,11.54,20.05,12.43,31.37   c0.64,12.39,0.13,25.3-5.07,36.78c-3.44,7.74-9.74,14.28-17.69,17.38c-9.3,3.57-19.75,3.78-29.35,1.29   c-9.77-2.57-18.06-9.63-22.57-18.62c-5.8-11.58-6.67-24.97-5.47-37.67c1.09-11.55,5.11-23.43,13.91-31.4   C1074.338,190.129,1083.038,187.219,1091.648,186.739L1091.648,186.739z" fill="#fff"/><path d="M1377.638,186.769c10.17-0.71,21.03,1.64,28.85,8.51c7.21,5.98,11.2,14.94,13.03,23.96   c2.06,10.58,2.04,21.53,0.3,32.16c-1.38,7.92-4.12,15.82-9.31,22.09c-5.23,6.3-13.01,10.14-21.04,11.32   c-8.62,1.29-17.7,0.67-25.76-2.8c-8.7-3.68-15.44-11.21-18.99-19.87c-4.27-10.32-5.12-21.75-4.27-32.79   c0.82-10.69,3.85-21.66,10.91-29.97C1357.798,191.619,1367.678,187.329,1377.638,186.769L1377.638,186.769z" fill="#fff"/><path d="M1610.598,189.959c11.92,0.04,23.85-0.32,35.77,0.17v90.01c-7.89,5.28-18.79,7.38-27.38,2.57   c-5.13-2.83-7.12-8.89-7.78-14.36c-1.09-9.28-0.4-18.64-0.59-27.95C1610.608,223.579,1610.648,206.769,1610.598,189.959   L1610.598,189.959z" fill="#fff"/><path d="M7.368,214.889c55.5,0.02,111-0.01,166.5,0.02c0.01,55.5,0,110.99,0,166.49H7.368V214.889L7.368,214.889z" fill="#02A4EF"/><path d="M190.878,214.909c55.49-0.02,110.99-0.01,166.49-0.01c0,55.5,0,111,0,166.5h-166.5   C190.878,325.899,190.858,270.399,190.878,214.909L190.878,214.909z" fill="#FFB902"/></g></svg>