<?xml version="1.0" ?><svg enable-background="new 0 0 187.992 53.543" id="Layer_1" version="1.1" viewBox="0 0 187.992 53.543" xml:space="preserve" xmlns="http://www.w3.org/2000/svg" xmlns:xlink="http://www.w3.org/1999/xlink"><path d="M29.045,28.493c0-0.542-0.285-1.04-0.753-1.309l-12.469-7.176c-0.211-0.124-0.447-0.188-0.687-0.198  c-0.021,0-0.111,0-0.129,0c-0.238,0.01-0.475,0.074-0.688,0.198L1.85,27.184c-0.465,0.269-0.754,0.767-0.754,1.309l0.027,19.322  c0,0.269,0.14,0.519,0.376,0.65c0.231,0.139,0.517,0.139,0.748,0l7.41-4.243c0.469-0.278,0.754-0.77,0.754-1.307v-9.027  c0-0.538,0.285-1.036,0.752-1.304l3.155-1.817c0.235-0.136,0.492-0.202,0.755-0.202c0.257,0,0.521,0.066,0.749,0.202l3.154,1.817  c0.467,0.268,0.753,0.766,0.753,1.304v9.027c0,0.537,0.289,1.031,0.755,1.307l7.408,4.243c0.232,0.139,0.523,0.139,0.753,0  c0.229-0.132,0.374-0.382,0.374-0.65L29.045,28.493z" fill="#333333"/><path d="M95.625,1.931c-0.233-0.13-0.518-0.127-0.749,0.008c-0.23,0.135-0.372,0.382-0.372,0.649v19.135  c0,0.188-0.101,0.362-0.263,0.456c-0.163,0.094-0.364,0.094-0.527,0l-3.123-1.799c-0.466-0.269-1.039-0.268-1.505,0.001  L76.612,27.58c-0.466,0.269-0.753,0.766-0.753,1.304v14.4c0,0.538,0.287,1.035,0.753,1.305l12.473,7.204  c0.466,0.269,1.04,0.269,1.507,0l12.475-7.204c0.466-0.27,0.753-0.767,0.753-1.305V7.389c0-0.546-0.295-1.049-0.772-1.315  L95.625,1.931z M94.468,38.554c0,0.134-0.072,0.259-0.188,0.326l-4.283,2.469c-0.116,0.067-0.26,0.067-0.376,0l-4.283-2.469  c-0.117-0.067-0.188-0.191-0.188-0.326v-4.945c0-0.134,0.072-0.259,0.188-0.326l4.283-2.474c0.117-0.067,0.26-0.067,0.377,0  l4.283,2.474c0.116,0.067,0.188,0.192,0.188,0.326L94.468,38.554L94.468,38.554z" fill="#333333"/><path d="M140.252,33.479c0.464-0.27,0.749-0.766,0.749-1.302v-3.49c0-0.537-0.286-1.033-0.75-1.303l-12.394-7.196  c-0.466-0.271-1.042-0.272-1.509-0.002l-12.469,7.199c-0.466,0.269-0.753,0.766-0.753,1.304v14.397c0,0.541,0.291,1.041,0.761,1.309  l12.392,7.061c0.457,0.261,1.017,0.264,1.477,0.008l7.495-4.166c0.238-0.132,0.386-0.382,0.387-0.653  c0.002-0.271-0.143-0.523-0.378-0.658l-12.548-7.202c-0.234-0.134-0.378-0.384-0.378-0.653V33.62c0-0.269,0.144-0.518,0.377-0.652  l3.905-2.252c0.232-0.134,0.52-0.134,0.752,0l3.907,2.252c0.233,0.134,0.377,0.383,0.377,0.652v3.55c0,0.27,0.144,0.519,0.377,0.653  c0.233,0.135,0.521,0.134,0.754-0.001L140.252,33.479z" fill="#333333"/><path d="M51.727,20.111c0.466-0.269,1.04-0.269,1.506,0l12.472,7.197c0.466,0.269,0.753,0.766,0.753,1.305v14.406  c0,0.538-0.287,1.035-0.753,1.305l-12.472,7.203c-0.466,0.269-1.041,0.269-1.507,0l-12.469-7.203  c-0.466-0.27-0.753-0.767-0.753-1.305V28.613c0-0.538,0.287-1.035,0.753-1.304L51.727,20.111z" fill="#80BD01"/><path d="M164.468,51.732c-0.43,0-0.857-0.112-1.233-0.33l-3.927-2.323c-0.586-0.328-0.3-0.444-0.107-0.512  c0.782-0.271,0.941-0.334,1.775-0.808c0.087-0.049,0.202-0.03,0.292,0.022l3.017,1.791c0.109,0.061,0.264,0.061,0.364,0  l11.761-6.788c0.109-0.063,0.18-0.188,0.18-0.318V28.894c0-0.133-0.07-0.257-0.183-0.324l-11.756-6.782  c-0.108-0.063-0.253-0.063-0.362,0l-11.753,6.784c-0.114,0.065-0.186,0.193-0.186,0.322v13.572c0,0.13,0.072,0.253,0.185,0.314  l3.222,1.861c1.748,0.874,2.818-0.155,2.818-1.189v-13.4c0-0.189,0.152-0.339,0.342-0.339h1.491c0.186,0,0.341,0.149,0.341,0.339  v13.4c0,2.333-1.27,3.671-3.482,3.671c-0.68,0-1.215,0-2.709-0.736l-3.084-1.775c-0.762-0.44-1.233-1.264-1.233-2.146V28.894  c0-0.882,0.472-1.705,1.233-2.144l11.761-6.796c0.744-0.421,1.733-0.421,2.472,0l11.76,6.796c0.762,0.44,1.235,1.262,1.235,2.144  v13.572c0,0.882-0.474,1.702-1.235,2.146l-11.76,6.79C165.33,51.62,164.904,51.732,164.468,51.732z" fill="#80BD01"/><path d="M168.101,42.382c-5.146,0-6.225-2.362-6.225-4.344c0-0.188,0.151-0.339,0.34-0.339h1.52  c0.17,0,0.311,0.122,0.338,0.288c0.229,1.548,0.914,2.329,4.026,2.329c2.478,0,3.532-0.561,3.532-1.875  c0-0.758-0.299-1.32-4.149-1.697c-3.218-0.318-5.208-1.029-5.208-3.604c0-2.373,2-3.788,5.354-3.788  c3.768,0,5.632,1.308,5.868,4.113c0.009,0.097-0.025,0.189-0.09,0.262c-0.064,0.067-0.154,0.108-0.249,0.108h-1.526  c-0.158,0-0.298-0.112-0.33-0.266c-0.366-1.629-1.257-2.149-3.673-2.149c-2.705,0-3.02,0.942-3.02,1.648  c0,0.855,0.371,1.104,4.023,1.588c3.614,0.478,5.331,1.154,5.331,3.694C173.964,40.914,171.828,42.382,168.101,42.382z" fill="#80BD01"/><path d="M126.919,32.805c0.089-0.052,0.2-0.052,0.289,0l2.394,1.381c0.089,0.052,0.145,0.147,0.145,0.251v2.764  c0,0.103-0.055,0.199-0.145,0.25l-2.394,1.381c-0.089,0.052-0.2,0.052-0.289,0l-2.392-1.381c-0.089-0.052-0.145-0.147-0.145-0.25  v-2.764c0-0.104,0.055-0.199,0.145-0.251L126.919,32.805z" fill="#80BD01"/><g><path d="M186.841,23.632c0,1.247-1.02,2.267-2.267,2.267c-1.235,0-2.267-1.007-2.267-2.267   c0-1.283,1.056-2.267,2.267-2.267C185.798,21.365,186.841,22.349,186.841,23.632z M182.674,23.626c0,1.056,0.852,1.907,1.895,1.907   c1.056,0,1.907-0.87,1.907-1.907c0-1.055-0.863-1.895-1.907-1.895C183.537,21.731,182.674,22.558,182.674,23.626z M183.723,22.361   h0.876c0.3,0,0.888,0,0.888,0.672c0,0.468-0.3,0.563-0.48,0.623c0.349,0.024,0.372,0.252,0.42,0.576   c0.024,0.204,0.061,0.552,0.132,0.671h-0.539c-0.013-0.12-0.097-0.768-0.097-0.803c-0.035-0.144-0.084-0.216-0.264-0.216h-0.443   v1.019h-0.492v-2.542H183.723z M184.203,23.476h0.396c0.323,0,0.384-0.228,0.384-0.359c0-0.348-0.24-0.348-0.372-0.348h-0.407   v0.707H184.203z" fill="#80BD01"/></g></svg>