<svg xmlns="http://www.w3.org/2000/svg" xmlns:xlink="http://www.w3.org/1999/xlink" version="1.1" width="256" height="256" viewBox="0 0 256 256" xml:space="preserve">

<defs>
</defs>
<g style="stroke: none; stroke-width: 0; stroke-dasharray: none; stroke-linecap: butt; stroke-linejoin: miter; stroke-miterlimit: 10; fill: none; fill-rule: nonzero; opacity: 1;" transform="translate(1.4065934065934016 1.4065934065934016) scale(2.81 2.81)" >
	<path d="M 52.127 52.388 c -1.826 0 -3.653 -0.668 -5.109 -2.004 L 27.099 32.11 c -1.221 -1.12 -1.303 -3.018 -0.183 -4.238 s 3.019 -1.303 4.238 -0.183 l 19.918 18.273 c 0.6 0.549 1.508 0.551 2.107 0 l 19.918 -18.273 c 1.221 -1.122 3.118 -1.039 4.239 0.183 c 1.12 1.221 1.038 3.118 -0.183 4.238 L 57.237 50.384 C 55.781 51.72 53.954 52.388 52.127 52.388 z" style="stroke: none; stroke-width: 1; stroke-dasharray: none; stroke-linecap: butt; stroke-linejoin: miter; stroke-miterlimit: 10; fill: #6741d9; fill-rule: nonzero; opacity: 1;" transform=" matrix(1 0 0 1 0 0) " stroke-linecap="round" />
	<path d="M 29.128 63.147 c -0.812 0 -1.62 -0.327 -2.211 -0.972 c -1.12 -1.221 -1.039 -3.119 0.182 -4.239 l 16.485 -15.124 c 1.222 -1.122 3.12 -1.038 4.239 0.182 c 1.12 1.221 1.038 3.119 -0.183 4.239 L 31.155 62.358 C 30.579 62.887 29.852 63.147 29.128 63.147 z" style="stroke: none; stroke-width: 1; stroke-dasharray: none; stroke-linecap: butt; stroke-linejoin: miter; stroke-miterlimit: 10; fill: #6741d9; fill-rule: nonzero; opacity: 1;" transform=" matrix(1 0 0 1 0 0) " stroke-linecap="round" />
	<path d="M 75.126 63.147 c -0.725 0 -1.451 -0.261 -2.027 -0.789 L 56.613 47.234 c -1.221 -1.12 -1.303 -3.018 -0.183 -4.239 c 1.121 -1.22 3.019 -1.303 4.239 -0.182 l 16.485 15.124 c 1.221 1.12 1.303 3.019 0.183 4.239 C 76.746 62.82 75.938 63.147 75.126 63.147 z" style="stroke: none; stroke-width: 1; stroke-dasharray: none; stroke-linecap: butt; stroke-linejoin: miter; stroke-miterlimit: 10; fill: #6741d9; fill-rule: nonzero; opacity: 1;" transform=" matrix(1 0 0 1 0 0) " stroke-linecap="round" />
	<path d="M 20.382 53.117 H 8.117 c -1.657 0 -3 -1.343 -3 -3 s 1.343 -3 3 -3 h 12.265 c 1.657 0 3 1.343 3 3 S 22.039 53.117 20.382 53.117 z" style="stroke: none; stroke-width: 1; stroke-dasharray: none; stroke-linecap: butt; stroke-linejoin: miter; stroke-miterlimit: 10; fill: #6741d9; fill-rule: nonzero; opacity: 1;" transform=" matrix(1 0 0 1 0 0) " stroke-linecap="round" />
	<path d="M 20.382 42.883 H 3 c -1.657 0 -3 -1.343 -3 -3 s 1.343 -3 3 -3 h 17.382 c 1.657 0 3 1.343 3 3 S 22.039 42.883 20.382 42.883 z" style="stroke: none; stroke-width: 1; stroke-dasharray: none; stroke-linecap: butt; stroke-linejoin: miter; stroke-miterlimit: 10; fill: #6741d9; fill-rule: nonzero; opacity: 1;" transform=" matrix(1 0 0 1 0 0) " stroke-linecap="round" />
	<path d="M 83.538 73.339 H 20.716 c -3.563 0 -6.462 -2.898 -6.462 -6.461 v -6.123 c 0 -1.657 1.343 -3 3 -3 s 3 1.343 3 3 v 6.123 c 0 0.254 0.207 0.461 0.462 0.461 h 62.822 c 0.255 0 0.462 -0.207 0.462 -0.461 V 23.123 c 0 -0.255 -0.207 -0.462 -0.462 -0.462 H 20.716 c -0.255 0 -0.462 0.207 -0.462 0.462 v 6.123 c 0 1.657 -1.343 3 -3 3 s -3 -1.343 -3 -3 v -6.123 c 0 -3.563 2.899 -6.462 6.462 -6.462 h 62.822 c 3.563 0 6.462 2.899 6.462 6.462 v 43.755 C 90 70.44 87.102 73.339 83.538 73.339 z" style="stroke: none; stroke-width: 1; stroke-dasharray: none; stroke-linecap: butt; stroke-linejoin: miter; stroke-miterlimit: 10; fill: #6741d9; fill-rule: nonzero; opacity: 1;" transform=" matrix(1 0 0 1 0 0) " stroke-linecap="round" />
</g>
</svg>